PathFileType	4	(X/Y/Z)	../Python\walking\Walking09\task.trc
DataRate	CameraRate	NumFrames	NumMarkers	Units	OrigDataRate	OrigDataStartFrame	OrigNumFrames
200.000000	200.000000	6	30	mm	200.000000	334	668
Frame#	Time	CLAV			STRN			RASI			LASI			RTH1			RTH2			RTH3			RTB1			RTB2			RTB3			RHEE			RD5M			RTOE			LTH1			LTH3			LTB1			LTB3			LTOE			LD5M			LPSI			LTB2			LTH2			RPSI			PE02			T10			PE03			PE01			C7			LHEE			RBAK			
		X1	Y1	Z1	X2	Y2	Z2	X3	Y3	Z3	X4	Y4	Z4	X5	Y5	Z5	X6	Y6	Z6	X7	Y7	Z7	X8	Y8	Z8	X9	Y9	Z9	X10	Y10	Z10	X11	Y11	Z11	X12	Y12	Z12	X13	Y13	Z13	X14	Y14	Z14	X15	Y15	Z15	X16	Y16	Z16	X17	Y17	Z17	X18	Y18	Z18	X19	Y19	Z19	X20	Y20	Z20	X21	Y21	Z21	X22	Y22	Z22	X23	Y23	Z23	X24	Y24	Z24	X25	Y25	Z25	X26	Y26	Z26	X27	Y27	Z27	X28	Y28	Z28	X29	Y29	Z29	X30	Y30	Z30	

335	1.67	792.0087280273442	1410.910034179688	143.2261962890626	847.1549682617192	1218.776611328125	156.4048614501954	820.0245971679692	1031.85595703125	299.8004455566407	837.6345214843755	985.778930664063	28.93457412719728	837.7301635742192	776.7406616210942	347.6857299804689	790.0136718750005	737.747497558594	340.2518310546876	821.8845214843755	701.6561279296877	327.1820068359376	920.1523437500005	371.1591796875001	277.908660888672	889.402954101563	318.5091247558595	279.2791748046876	930.615356445313	293.8479309082032	266.2990722656251	896.0939941406255	25.63474845886232	173.0001983642579	1051.457641601563	14.89451694488526	258.171356201172	1105.486938476563	37.32728576660158	217.068817138672	689.7086181640627	697.2697753906252	-0.6415295600891116	690.8934326171877	619.166687011719	12.11543846130372	521.3410644531252	394.5416259765627	21.17871856689454	489.3383483886721	322.2362670898439	25.19225692749025	382.0437011718751	31.56938552856447	100.0020065307618	346.2935485839845	35.52207565307619	52.491081237793	661.2265625000002	1045.6533203125	108.0606689453126	474.4024353027346	382.2703857421876	32.86067199707033	654.1201171875002	667.9854736328127	20.03220176696778	658.039001464844	1055.690551757813	208.0240478515626	655.053649902344	1041.242431640625	186.1216278076172	622.0728149414065	1242.412963867188	121.205909729004	654.1028442382815	1034.406860351563	135.4415283203126	665.599792480469	1097.329223632813	152.4405364990235	678.6997680664065	1502.459106445313	118.9526443481446	273.118133544922	190.2278137207032	83.84919738769534	638.9817504882815	1415.856323242188	286.666717529297	
336	1.675	798.6652832031255	1411.799560546875	143.788803100586	854.1419067382817	1219.787231445313	156.8833770751954	827.011596679688	1033.427124023438	300.2565307617189	844.6278686523442	986.0249633789067	29.83175849914552	843.9984741210942	777.9844360351567	348.1959228515626	796.0719604492192	739.235290527344	341.4420471191407	827.7346191406255	702.9870605468752	328.0493469238282	922.7341918945317	371.3816223144532	278.3657226562501	891.582153320313	318.9465332031251	279.7558593750001	932.5772094726567	294.0007629394532	266.6166076660157	896.0939941406255	25.62696266174318	173.0320281982422	1051.398071289063	14.96205711364747	258.1878967285157	1105.681884765625	37.06322479248048	216.8284912109376	699.8953857421877	695.6868896484377	0.6283762454986574	702.0761718750002	617.5380859375002	13.04522705078126	533.2117919921877	394.681335449219	21.14462471008301	500.0662231445315	322.8746032714845	25.00066947937013	384.1448059082034	32.92153167724611	99.91603851318365	350.2391662597657	38.5111541748047	52.39928817749026	668.203063964844	1046.308715820313	108.138168334961	486.1328125000002	383.1333312988282	32.85076904296876	664.752868652344	665.8799438476565	21.3131446838379	664.9981079101565	1056.751220703125	208.1588745117189	662.0637817382815	1042.216552734375	186.2813415527344	629.1162109375002	1243.036743164063	121.531105041504	661.1035156250002	1035.147827148438	135.6447143554688	672.656188964844	1098.12744140625	152.3892822265626	685.2442016601565	1503.176879882813	119.5418243408204	282.1368103027345	195.7372589111329	82.00526428222659	645.6607055664065	1416.42919921875	287.1704711914064	
337	1.68	805.295776367188	1412.691040039063	144.3314361572266	861.0693969726567	1220.781372070313	157.3366699218751	833.9507446289067	1034.933471679688	300.7025756835939	851.4942016601567	986.305541992188	30.67352867126466	850.1511230468755	779.1430664062505	348.7081298828126	802.0243530273442	740.6626586914065	342.607147216797	833.4671020507817	704.2432861328127	328.8932495117189	925.1309204101567	371.5656738281251	278.8382263183595	893.5786743164067	319.3383178710939	280.1979370117189	934.370971679688	294.1201782226564	266.9494018554689	896.0740356445317	25.60746002197267	173.0569763183594	1051.349975585938	15.01177787780762	258.1920471191407	1105.881103515625	36.82856369018556	216.644500732422	710.1194458007815	694.0782470703127	1.929460763931275	713.3757324218752	615.889099121094	14.02596092224122	545.3923339843752	394.7564086914065	21.1064853668213	511.115173339844	323.4706420898439	24.87586021423341	387.0247192382815	34.56623840332033	99.78010559082037	354.8374938964845	41.72724914550783	52.29135513305667	675.072937011719	1046.957153320313	108.2869033813477	498.1738586425784	383.943817138672	32.81039047241212	675.451843261719	663.715515136719	22.61116790771485	671.8950805664065	1057.800659179688	208.3435516357423	668.9931640625002	1043.173950195313	186.4986724853516	636.099548339844	1243.689697265625	121.8799514770508	668.0068969726565	1035.88671875	135.9034729003907	679.6380615234377	1098.92236328125	152.3966217041016	691.7712402343752	1503.9140625	120.1266555786133	291.4685058593751	201.1690368652345	80.18377685546878	652.3347167968752	1417.029541015625	287.681610107422	
338	1.685	811.899291992188	1413.581665039063	144.8537750244141	867.936889648438	1221.755737304688	157.7646942138672	840.841674804688	1036.366088867188	301.1405639648439	858.2380981445317	986.6194458007817	31.45775794982912	856.180297851563	780.2085571289067	349.2209472656251	807.8541870117192	742.024108886719	343.7394409179689	839.0525512695317	705.4143676757815	329.7091674804689	927.3543090820317	371.710418701172	279.324432373047	895.406127929688	319.6844482421876	280.6084289550782	936.0094604492192	294.2054443359376	267.2964477539064	896.0418090820317	25.58391189575197	173.0778198242188	1051.316040039063	15.03966808319093	258.191864013672	1106.087524414063	36.61189651489259	216.5100555419923	720.3633422851565	692.4758300781252	3.257373332977297	724.7654418945315	614.2574462890627	15.05485248565675	557.8604736328127	394.784118652344	21.06654167175294	522.467712402344	324.0387268066407	24.82208633422853	390.7669982910159	36.49912643432619	99.58647918701178	360.1246032714845	45.14342117309572	52.15654754638675	681.8417968750002	1047.59228515625	108.5134506225587	510.5034790039065	384.7164001464846	32.74050140380861	686.2000732421877	661.5325317382815	23.92988204956055	678.7302856445315	1058.835571289063	208.5806121826173	675.8425292968752	1044.110717773438	186.7770996093751	643.021423339844	1244.3681640625	122.2551422119141	674.8156738281252	1036.620361328125	136.2203369140626	686.5463867187502	1099.71142578125	152.4654693603516	698.279724121094	1504.66796875	120.707130432129	301.0890502929689	206.4980926513673	78.43117523193362	659.003112792969	1417.654907226563	288.2015075683595	
339	1.69	818.4748535156255	1414.468627929688	145.3557281494141	874.7444458007817	1222.707397460938	158.1677551269532	847.6838378906255	1037.717529296875	301.5726928710939	864.8652954101567	986.9660644531255	32.18349075317384	862.0778808593755	781.174926757813	349.7332153320314	813.544799804688	743.315368652344	344.830780029297	844.464233398438	706.4924316406252	330.4938354492189	929.417846679688	371.8160705566407	279.8219604492189	897.0795288085942	319.9862060546876	280.9903259277345	937.506713867188	294.2569274902345	267.6561584472657	896.0033569335942	25.56205368041994	173.0967102050782	1051.296630859375	15.04510498046876	258.1937561035157	1106.30126953125	36.40588378906251	216.4176330566407	730.6079101562502	690.9135742187502	4.606403827667238	736.2153930664065	612.6828613281252	16.12473487854005	570.5915527343752	394.7843322753909	21.02832031250001	534.1041259765627	324.5950927734376	24.8424472808838	395.4338989257815	38.70383834838869	99.32660675048834	366.1263122558595	48.72773742675784	51.98296356201175	688.515808105469	1048.208862304688	108.8224792480469	523.097595214844	385.4675598144534	32.64513397216798	696.9796142578127	659.3741455078127	25.27290153503419	685.5045166015627	1059.852783203125	208.8717041015626	682.6135864257815	1045.02392578125	187.1189575195313	649.8811035156252	1245.069091796875	122.6591339111329	681.5334472656252	1037.346435546875	136.5968017578126	693.3824462890627	1100.49267578125	152.5978240966797	704.768493652344	1505.436157226563	121.2833251953126	310.9766540527345	211.6993408203126	76.79793548583987	665.6653442382815	1418.302856445313	288.7314453125001	
340	1.695	825.0219116210942	1415.349487304688	145.8374176025391	881.4922485351567	1223.63427734375	158.5464477539063	854.4766235351567	1038.982177734375	302.001190185547	871.3826293945317	987.3449096679692	32.85097503662111	867.8357543945317	782.0385131835942	350.2440185546876	819.0808105468755	744.5330810546877	345.873016357422	849.6801757812505	707.472595214844	331.2453918457032	931.3363647460942	371.884002685547	280.3277282714845	898.6147460937505	320.2460021972657	281.3463745117189	938.8776855468755	294.2759094238282	268.026092529297	895.9634399414067	25.54579734802248	173.1152648925782	1051.289916992188	15.02980136871339	258.2024230957032	1106.521362304688	36.20623779296876	216.3598785400392	740.8328247070315	689.4253540039065	5.969571590423586	747.693298339844	611.205261230469	17.22411537170411	583.559265136719	394.778747558594	20.99680328369141	546.0032958984377	325.1571655273439	24.93894767761232	401.0639953613284	41.15288543701173	98.9906845092774	372.8576660156251	52.44438171386722	51.7582817077637	695.1015625000002	1048.803100585938	109.2164916992188	535.9304809570315	386.2147216796877	32.53148651123048	707.7716064453127	657.2837524414065	26.64332962036134	692.2187500000002	1060.850219726563	209.2176361083986	689.308288574219	1045.911499023438	187.5252685546876	656.6782226562502	1245.788818359375	123.0941162109376	688.1644287109377	1038.0634765625	137.0332489013672	700.1479492187502	1101.264892578125	152.7947845458985	711.2366943359377	1506.215942382813	121.855339050293	321.1124267578126	216.7478027343751	75.33593750000003	672.3206176757815	1418.97119140625	289.2726135253907	
